<svg xmlns="http://www.w3.org/2000/svg" viewbox="0 0 64 64" width="64" height="64"><path fill="#FFF" d="M59 41c0 26.7-56 26.7-56 0s56-26.7 56 0z"/><path d="M56.4 19.3h-2.9C53.5 15.7 49.3 0 31.7 0S9.9 15.7 9.9 19.3H7.4a7.2 7.2 0 0 0-7.5 7.2v30.2A7.4 7.4 0 0 0 7.5 64h49.1c4.2 0 7.5-3.1 7.5-7.2V26.6c-.2-4-3.5-7.3-7.7-7.3zM31.8 8.5c10 0 13 8.3 13 10.8H18.9c-.1-2.5 3-10.8 12.9-10.8zm17.5 41.9c-.1 1.5 0 3-.7 4.5-.7 1.4-2.1 2-3.7 2h-26c-1.6 0-4.7.3-6-2.1-1.5-2.7 1.3-4.8 2.2-6l14.4-14.3c-2 0-6.5-.3-7.6 2.1-.7 1.7-2.5 3.5-6.3 2.3-2.8-.9-2.1-4.1-1.8-6.4.2-1.4-.2-2.8.6-4.2a4 4 0 0 1 3-1.8c1.4-.2 22.8-.1 24.3-.1s3.1-.2 4.6.5c2.5 1.4 2.5 4.3.9 6.2-4.8 5.6-10.6 10.4-15.8 15.5h5.2c1.5 0 3-.2 3.9-1.6.7-1.2.7-2.4 1.8-3.1 3.1-2.1 6.5-.2 7.1 1.4.8 1.8 0 3.5-.1 5.1z"/></svg>
